<svg xmlns="http://www.w3.org/2000/svg" width="67.382" height="57.937" viewBox="0 0 67.382 57.937">
  <g id="ic_product" transform="translate(10.966 -5.801)">
    <g id="Group_1918" data-name="Group 1918" transform="translate(-10.966 5.957)">
      <rect id="Rectangle_2454" data-name="Rectangle 2454" width="57.782" height="57.782" transform="translate(0 0)" fill="none"/>
      <path id="Path_1744" data-name="Path 1744" d="M21.025,0,.225,8.679" transform="translate(28.333 15.843)" fill="none" stroke="#212121" stroke-width="1.2"/>
      <path id="Path_1741" data-name="Path 1741" d="M-8.668,9.422-29.3,18.747V28.6" transform="translate(46.915 2.08)" fill="none" stroke="#969799" stroke-linejoin="round" stroke-width="1.2"/>
      <path id="Path_1739" data-name="Path 1739" d="M-11.9,8.157-32.7,16.4V43.188l20.8,8.758L8.9,43.188V16.4Z" transform="translate(40.46 -0.467)" fill="none" stroke="#212121" stroke-linejoin="round" stroke-width="1.2"/>
      <path id="Path_1740" data-name="Path 1740" d="M-32.566,11.147l20.236,8.187V39.1" transform="translate(40.887 5.214)" fill="none" stroke="#212121" stroke-linejoin="round" stroke-width="1.2"/>
    </g>
    <g id="레이어_3" data-name="레이어 3" transform="translate(46.582 6.401)">
      <path id="Path_539" data-name="Path 539" d="M71.947,8.77s.08-4.577,4.657-4.577S81.181,8.77,81.181,8.77s0,4.577-4.577,4.577v3.694" transform="translate(-71.947 -4.193)" fill="none" stroke="#010101" stroke-linejoin="round" stroke-width="1.2"/>
      <line id="Line_331" data-name="Line 331" y2="1.354" transform="translate(4.617 15.062)" fill="none" stroke="#010101" stroke-width="1.2"/>
    </g>
  </g>
</svg>
